<?xml version="1.0" standalone="no"?>
<svg viewBox="0 0 200 200" xmlns="http://www.w3.org/2000/svg">
  <path fill="#80BFFF" d="M47.7,-75.6C61.2,-65.4,71.2,-51.3,72.5,-36.6C73.8,-21.9,66.3,-6.7,65.1,10.1C63.8,26.9,68.7,45.4,62,54.6C55.3,63.8,37,63.8,20.4,68C3.7,72.3,-11.2,80.8,-24.3,78.7C-37.3,76.7,-48.5,64.2,-52.4,50.5C-56.2,36.8,-52.9,22,-57.6,6.6C-62.4,-8.7,-75.2,-24.5,-74.9,-37.9C-74.5,-51.4,-60.9,-62.5,-46.3,-72.2C-31.6,-81.9,-15.8,-90.1,0.6,-91.1C17.1,-92.1,34.1,-85.8,47.7,-75.6Z" transform="translate(100 100)" />
</svg>
