<svg version="1.1"
      xmlns="http://www.w3.org/2000/svg"
      xmlns:xlink="http://www.w3.org/1999/xlink"  id="snapshot-14358" width="250" height="250" viewBox="0 0 250 250"><desc>This image was made on Patterninja.com</desc><defs>
<!-- image 34683 -->
<g id="transformed-34683" data-image="34683" transform="translate(-125, -125) rotate(0, 125, 125)"><g><svg version="1.1" width="250px" height="250px" viewBox="0 0 250 250"><g id="original-34683"><svg xmlns="http://www.w3.org/2000/svg" viewBox="0 0 71 71" xmlns:xlink="http://www.w3.org/1999/xlink" version="1.1" preserveAspectRatio="xMidYMid meet">
  <path fill-rule="evenodd" d="M40 8.024l7.648 7.652-35.181 35.2-7.648-7.652z" fill="rgba(69, 111, 216, 1)" stroke="none"/>
  <path fill-rule="evenodd" d="M46.65 14.676l8.648 8.651-35.181 35.2-8.648-8.652z" fill="rgba(86, 127, 229, 1)" stroke="none"/>
  <path fill-rule="evenodd" d="M54.3 22.327l8.648 8.652-35.181 35.2-8.648-8.651z" fill="rgba(50, 88, 182, 1)" stroke="none"/>
  <path fill-rule="evenodd" d="M55.3 1.9l13.767 13.774a6.5 6.5 0 0 1 0 9.182L46.12 1.9a6.489 6.489 0 0 1 9.18 0z" fill="rgba(255, 114, 177, 1)" stroke="none"/>
  <path fill-rule="evenodd" d="M47.12.9l22.945 22.956a1.083 1.083 0 0 1 0 1.53l-5.589 5.591a1.081 1.081 0 0 1-1.53 0L40 8.024a1.084 1.084 0 0 1 0-1.531L45.589.902A1.082 1.082 0 0 1 47.12.9z" fill="rgba(198, 198, 198, 1)" stroke="none"/>
  <path fill-rule="evenodd" d="M4.821 43.222l22.944 22.955L1 70z" fill="rgba(255, 200, 51, 1)" stroke="none"/>
  <path fill-rule="evenodd" d="M11.366 68.664L0 71l2.338-11.373z" fill="rgba(86, 127, 229, 1)" stroke="none"/>
</svg>
</g></svg></g></g>
<!-- /image 34683 -->
</defs><rect x="0" y="0" width="250" height="250" fill="rgba(255, 255, 255, 0)"></rect><use xlink:href="#transformed-34683" transform="translate(-250, -250)"></use><use xlink:href="#transformed-34683" transform="translate(0, -250)"></use><use xlink:href="#transformed-34683" transform="translate(250, -250)"></use><use xlink:href="#transformed-34683" transform="translate(-250, 0)"></use><use xlink:href="#transformed-34683" transform="translate(0, 0)"></use><use xlink:href="#transformed-34683" transform="translate(250, 0)"></use><use xlink:href="#transformed-34683" transform="translate(-250, 250)"></use><use xlink:href="#transformed-34683" transform="translate(0, 250)"></use><use xlink:href="#transformed-34683" transform="translate(250, 250)"></use></svg>