<?xml version="1.0" standalone="no"?>
<svg xmlns:xlink="http://www.w3.org/1999/xlink" id="wave" style="transform:rotate(0deg); transition: 0.3s" viewBox="0 0 1440 300" version="1.1" xmlns="http://www.w3.org/2000/svg"><defs><linearGradient id="sw-gradient-0" x1="0" x2="0" y1="1" y2="0"><stop stop-color="rgba(90, 141, 198, 1)" offset="0%"/><stop stop-color="rgba(128, 191, 255, 1)" offset="100%"/></linearGradient></defs><path style="transform:translate(0, 0px); opacity:1" fill="url(#sw-gradient-0)" d="M0,120L15,135C30,150,60,180,90,205C120,230,150,250,180,245C210,240,240,210,270,175C300,140,330,100,360,105C390,110,420,160,450,190C480,220,510,230,540,205C570,180,600,120,630,120C660,120,690,180,720,210C750,240,780,240,810,215C840,190,870,140,900,110C930,80,960,70,990,90C1020,110,1050,160,1080,185C1110,210,1140,210,1170,195C1200,180,1230,150,1260,115C1290,80,1320,40,1350,25C1380,10,1410,20,1440,20C1470,20,1500,10,1530,30C1560,50,1590,100,1620,100C1650,100,1680,50,1710,70C1740,90,1770,180,1800,190C1830,200,1860,130,1890,90C1920,50,1950,40,1980,40C2010,40,2040,50,2070,65C2100,80,2130,100,2145,110L2160,120L2160,300L2145,300C2130,300,2100,300,2070,300C2040,300,2010,300,1980,300C1950,300,1920,300,1890,300C1860,300,1830,300,1800,300C1770,300,1740,300,1710,300C1680,300,1650,300,1620,300C1590,300,1560,300,1530,300C1500,300,1470,300,1440,300C1410,300,1380,300,1350,300C1320,300,1290,300,1260,300C1230,300,1200,300,1170,300C1140,300,1110,300,1080,300C1050,300,1020,300,990,300C960,300,930,300,900,300C870,300,840,300,810,300C780,300,750,300,720,300C690,300,660,300,630,300C600,300,570,300,540,300C510,300,480,300,450,300C420,300,390,300,360,300C330,300,300,300,270,300C240,300,210,300,180,300C150,300,120,300,90,300C60,300,30,300,15,300L0,300Z"/><defs><linearGradient id="sw-gradient-1" x1="0" x2="0" y1="1" y2="0"><stop stop-color="rgba(90, 141, 198, 1)" offset="0%"/><stop stop-color="rgba(128, 191, 255, 1)" offset="100%"/></linearGradient></defs><path style="transform:translate(0, 50px); opacity:0.9" fill="url(#sw-gradient-1)" d="M0,0L15,0C30,0,60,0,90,30C120,60,150,120,180,165C210,210,240,240,270,230C300,220,330,170,360,150C390,130,420,140,450,150C480,160,510,170,540,190C570,210,600,240,630,230C660,220,690,170,720,135C750,100,780,80,810,90C840,100,870,140,900,170C930,200,960,220,990,225C1020,230,1050,220,1080,200C1110,180,1140,150,1170,140C1200,130,1230,140,1260,150C1290,160,1320,170,1350,160C1380,150,1410,120,1440,135C1470,150,1500,210,1530,200C1560,190,1590,110,1620,85C1650,60,1680,90,1710,115C1740,140,1770,160,1800,160C1830,160,1860,140,1890,145C1920,150,1950,180,1980,160C2010,140,2040,70,2070,65C2100,60,2130,120,2145,150L2160,180L2160,300L2145,300C2130,300,2100,300,2070,300C2040,300,2010,300,1980,300C1950,300,1920,300,1890,300C1860,300,1830,300,1800,300C1770,300,1740,300,1710,300C1680,300,1650,300,1620,300C1590,300,1560,300,1530,300C1500,300,1470,300,1440,300C1410,300,1380,300,1350,300C1320,300,1290,300,1260,300C1230,300,1200,300,1170,300C1140,300,1110,300,1080,300C1050,300,1020,300,990,300C960,300,930,300,900,300C870,300,840,300,810,300C780,300,750,300,720,300C690,300,660,300,630,300C600,300,570,300,540,300C510,300,480,300,450,300C420,300,390,300,360,300C330,300,300,300,270,300C240,300,210,300,180,300C150,300,120,300,90,300C60,300,30,300,15,300L0,300Z"/></svg>